<?xml version="1.0" encoding="utf-8"?>
<!-- Generator: Adobe Illustrator 23.0.1, SVG Export Plug-In . SVG Version: 6.00 Build 0)  -->
<svg version="1.1" id="Layer_1" xmlns="http://www.w3.org/2000/svg" xmlns:xlink="http://www.w3.org/1999/xlink" x="0px" y="0px"
	 viewBox="0 0 1000 1000" style="enable-background:new 0 0 1000 1000;" xml:space="preserve">
<style type="text/css">
	.st0{fill:#5B4A81;}
	.st1{fill:#544479;}
	.st2{clip-path:url(#SVGID_2_);}
	.st3{fill:#451A14;}
	.st4{fill:#EAC8AE;}
	.st5{fill:#F2D8BC;}
	.st6{fill:#EAC0A7;}
	.st7{fill:#FFFFFF;}
	.st8{fill:#EA1B3B;}
	.st9{fill:#C5202E;}
</style>
<g id="women_3">
	<g>
		<path class="st0" d="M906.8,531.5c0-232.1-188.2-420.3-420.3-420.3S66.2,299.4,66.2,531.5c0,232.1,188.2,420.3,420.3,420.3
			S906.8,763.6,906.8,531.5z"/>
		<path class="st1" d="M906.8,531.5c0-232.1-188.2-420.3-420.3-420.3v840.6C718.6,951.8,906.8,763.6,906.8,531.5z"/>
	</g>
	<g>
		<defs>
			<circle id="SVGID_1_" cx="486.5" cy="531.5" r="420.3"/>
		</defs>
		<clipPath id="SVGID_2_">
			<use xlink:href="#SVGID_1_"  style="overflow:visible;"/>
		</clipPath>
		<g class="st2">
			<path class="st3" d="M324.7,456.6c0,70.4-38.6,72.2-35.9,118.8c3.1,51.6,43.4,51.7,43.4,87.2c0,35.5-37.1,75.3-4.2,113.5
				c144.6,0,158.7,0,158.7,0V345.7L324.7,456.6z"/>
			<path class="st3" d="M648.5,456.6c0,70.4,38.6,72.2,35.9,118.8c-3.1,51.6-43.4,51.7-43.4,87.2c0,35.5,37.1,75.3,4.2,113.5
				c-144.6,0-158.7,0-158.7,0V345.7L648.5,456.6z"/>
			<g>
				<path class="st3" d="M671.3,383.8c0-101.6-82.4-184-184-184c-101.6,0-184,82.4-184,184c0,101.6,82.4,184,184,184
					C589,567.8,671.3,485.4,671.3,383.8z"/>
				<polygon class="st4" points="548.9,777.7 486.6,952.6 425.8,777.7 425.8,642.8 548.9,642.8 				"/>
				<g>
					<path class="st5" d="M487.4,268.7c-59.8,0-154.3,34-154.3,193.2c0,91.9,35.8,135.3,48.9,151.9c12,15.3,73.7,64.9,105.4,64.9
						C487.4,517.8,487.4,268.7,487.4,268.7z"/>
					<path class="st5" d="M303.4,499.9c-2.6-25.4,9.5-48,27.1-50.4c17.6-2.4,34,16.3,36.6,41.7c2.6,25.4-9.5,48-27.1,50.4
						C322.4,543.9,306,525.3,303.4,499.9z"/>
				</g>
				<g>
					<g>
						<g>
							<path class="st6" d="M486.9,268.7c59.8,0,154.3,34,154.3,193.2c0,91.9-35.8,135.3-48.9,151.9c-12,15.3-73.7,64.9-105.4,64.9
								C486.9,517.8,486.9,268.7,486.9,268.7z"/>
						</g>
						<g>
							<path class="st6" d="M671.4,499.9c2.6-25.4-9.5-48-27.1-50.4c-17.6-2.4-34,16.3-36.6,41.7c-2.6,25.4,9.5,48,27.1,50.4
								C652.3,543.9,668.7,525.3,671.4,499.9z"/>
						</g>
					</g>
				</g>
				<path class="st4" d="M486.6,952.6V784.4c0,0-45.9-11.4-56-48.6c-4.9-17.9-4.7-32.2-4.7-32.2S325.4,737.6,303,772.6
					c-18.6,55.5-23.8,180-23.8,180H486.6z"/>
				<path class="st4" d="M486.6,952.6V784.4c0,0,45.9-11.4,56-48.6c4.9-17.9,4.7-32.2,4.7-32.2s100.4,33.9,122.8,68.9
					c18.7,55.5,23.8,180,23.8,180H486.6z"/>
				<path class="st7" d="M487.4,622.6c23.3,0,42.2-14.3,42.2-32h-84.4C445.2,608.3,464.1,622.6,487.4,622.6z"/>
				<path class="st8" d="M486.6,886.8c0,0-44.2-110.6-60.8-183.2c-16.7,6.5-30.4,10.5-40.9,15.9c-49.7,104.6-51.8,233-51.8,233
					h153.5V886.8z"/>
				<path class="st9" d="M487.3,886.8c0,0,44.2-110.6,60.8-183.2c16.7,6.5,30.4,10.5,40.9,15.9c49.7,104.6,51.8,233,51.8,233H487.3
					V886.8z"/>
			</g>
			<path class="st3" d="M478.7,222.9c-109.2,0-142.4,95.7-142.4,139.7c-39.6,55,3.6,104.3,34.1,121.6c0-10.2,0-14,0-27.1
				c0-35.6,33.9-68.6,84.7-63.1c45.6,4.9,74.3-20.8,98.5-64.6C583.5,270.8,546.1,222.9,478.7,222.9z"/>
			<path class="st3" d="M548.9,311.5c0,0,25.5,103.6,95.4,138c12.4-93.1,19.8-73.5,0-122.5c-19.8-49-95.4-85.5-95.4-85.5V311.5z"/>
		</g>
	</g>
</g>
</svg>
